<svg width="24" height="24" viewBox="0 0 24 24" fill="none" xmlns="http://www.w3.org/2000/svg">
<path d="M2 4.75C2 4.02065 2.28973 3.32118 2.80546 2.80546C3.32118 2.28973 4.02065 2 4.75 2H17.25C17.9793 2 18.6788 2.28973 19.1945 2.80546C19.7103 3.32118 20 4.02065 20 4.75V11.022C19.386 10.6285 18.7097 10.3418 18 10.174V4.75C18 4.55109 17.921 4.36032 17.7803 4.21967C17.6397 4.07902 17.4489 4 17.25 4H4.75C4.55109 4 4.36032 4.07902 4.21967 4.21967C4.07902 4.36032 4 4.55109 4 4.75V17.25C4 17.664 4.336 18 4.75 18H10.174C10.344 18.72 10.634 19.395 11.022 20H4.75C4.02065 20 3.32118 19.7103 2.80546 19.1945C2.28973 18.6788 2 17.9793 2 17.25V4.75ZM22 16.5C22 15.0413 21.4205 13.6424 20.3891 12.6109C19.3576 11.5795 17.9587 11 16.5 11C15.0413 11 13.6424 11.5795 12.6109 12.6109C11.5795 13.6424 11 15.0413 11 16.5C11 17.9587 11.5795 19.3576 12.6109 20.3891C13.6424 21.4205 15.0413 22 16.5 22C17.9587 22 19.3576 21.4205 20.3891 20.3891C21.4205 19.3576 22 17.9587 22 16.5ZM17 17L17.001 19.503C17.001 19.6356 16.9483 19.7628 16.8546 19.8566C16.7608 19.9503 16.6336 20.003 16.501 20.003C16.3684 20.003 16.2412 19.9503 16.1474 19.8566C16.0537 19.7628 16.001 19.6356 16.001 19.503V17H13.496C13.3634 17 13.2362 16.9473 13.1424 16.8536C13.0487 16.7598 12.996 16.6326 12.996 16.5C12.996 16.3674 13.0487 16.2402 13.1424 16.1464C13.2362 16.0527 13.3634 16 13.496 16H16V13.5C16 13.3674 16.0527 13.2402 16.1464 13.1464C16.2402 13.0527 16.3674 13 16.5 13C16.6326 13 16.7598 13.0527 16.8536 13.1464C16.9473 13.2402 17 13.3674 17 13.5V16H19.497C19.6296 16 19.7568 16.0527 19.8506 16.1464C19.9443 16.2402 19.997 16.3674 19.997 16.5C19.997 16.6326 19.9443 16.7598 19.8506 16.8536C19.7568 16.9473 19.6296 17 19.497 17H17Z" fill="#9BA6F5"/>
</svg>
