<svg width="22" height="24" viewBox="0 0 22 24" fill="none" xmlns="http://www.w3.org/2000/svg">
<path d="M2.94499 14.8433L0.543979 17.2444C0.243548 17.5448 0.243548 18.0319 0.543979 18.3323L2.94499 20.7333C3.24542 21.0338 3.73252 21.0338 4.03295 20.7333L6.43396 18.3323C6.73439 18.0319 6.73439 17.5448 6.43396 17.2444L4.03295 14.8433C3.73252 14.5429 3.24542 14.5429 2.94499 14.8433Z" fill="#8593A4"/>
<path d="M17.0622 14.8387L14.6612 17.2397C14.3607 17.5401 14.3607 18.0272 14.6612 18.3277L17.0622 20.7287C17.3626 21.0291 17.8497 21.0291 18.1501 20.7287L20.5511 18.3277C20.8516 18.0272 20.8516 17.5401 20.5511 17.2397L18.1501 14.8387C17.8497 14.5383 17.3626 14.5383 17.0622 14.8387Z" fill="#8593A4"/>
<path d="M10.1091 17.566L7.70804 19.967C7.40761 20.2674 7.40761 20.7545 7.70804 21.055L10.1091 23.456C10.4095 23.7564 10.8966 23.7564 11.197 23.456L13.598 21.055C13.8985 20.7545 13.8985 20.2674 13.598 19.967L11.197 17.566C10.8966 17.2656 10.4095 17.2656 10.1091 17.566Z" fill="#8593A4"/>
<path d="M5.43577 16.0294C5.59493 16.1885 5.88674 16.1885 6.0459 16.0294L10.1046 11.9706V16.8252C10.1046 16.9578 10.2903 17.0639 10.5291 17.0639H10.7678C11.0066 17.0639 11.1923 16.9578 11.1923 16.8252V12.1828L15.0653 16.0559C15.2245 16.215 15.5163 16.215 15.6755 16.0559L15.8081 15.9232C15.9673 15.7641 15.9673 15.4723 15.8081 15.3131L11.1923 10.6973V9.29132L15.1714 5.31217C15.4632 5.02036 15.4632 4.51634 15.1714 4.22453L11.1923 0.218853C10.9005 -0.0729511 10.3964 -0.0729511 10.1046 0.218853L6.12549 4.19801C5.83368 4.48981 5.83368 4.99384 6.12549 5.28564L10.1046 9.26479V10.4851L5.2766 15.3131C5.11744 15.4723 5.11744 15.7641 5.2766 15.9232L5.40924 16.0559L5.43577 16.0294Z" fill="#8593A4"/>
</svg>
