<svg width="24" height="24" viewBox="0 0 24 24" fill="none" xmlns="http://www.w3.org/2000/svg">
<path d="M3.94499 14.8433L1.54398 17.2444C1.24355 17.5448 1.24355 18.0319 1.54398 18.3323L3.94499 20.7333C4.24542 21.0338 4.73252 21.0338 5.03295 20.7333L7.43396 18.3323C7.73439 18.0319 7.73439 17.5448 7.43396 17.2444L5.03295 14.8433C4.73252 14.5429 4.24542 14.5429 3.94499 14.8433Z" fill="#E7E9EC"/>
<path d="M18.0627 14.8387L15.6617 17.2397C15.3612 17.5401 15.3612 18.0272 15.6617 18.3277L18.0627 20.7287C18.3631 21.0291 18.8502 21.0291 19.1506 20.7287L21.5516 18.3277C21.8521 18.0272 21.8521 17.5401 21.5516 17.2397L19.1506 14.8387C18.8502 14.5383 18.3631 14.5383 18.0627 14.8387Z" fill="#E7E9EC"/>
<path d="M11.1086 17.566L8.70755 19.967C8.40712 20.2674 8.40712 20.7545 8.70755 21.055L11.1086 23.456C11.409 23.7564 11.8961 23.7564 12.1965 23.456L14.5975 21.055C14.898 20.7545 14.898 20.2674 14.5975 19.967L12.1965 17.566C11.8961 17.2656 11.409 17.2656 11.1086 17.566Z" fill="#E7E9EC"/>
<path d="M6.43577 16.0294C6.59493 16.1885 6.88674 16.1885 7.0459 16.0294L11.1046 11.9706V16.8252C11.1046 16.9578 11.2903 17.0639 11.5291 17.0639H11.7678C12.0066 17.0639 12.1923 16.9578 12.1923 16.8252V12.1828L16.0653 16.0559C16.2245 16.215 16.5163 16.215 16.6755 16.0559L16.8081 15.9232C16.9673 15.7641 16.9673 15.4723 16.8081 15.3131L12.1923 10.6973V9.29132L16.1714 5.31217C16.4632 5.02036 16.4632 4.51634 16.1714 4.22453L12.1923 0.218853C11.9005 -0.0729511 11.3964 -0.0729511 11.1046 0.218853L7.12549 4.19801C6.83368 4.48981 6.83368 4.99384 7.12549 5.28564L11.1046 9.26479V10.4851L6.2766 15.3131C6.11744 15.4723 6.11744 15.7641 6.2766 15.9232L6.40924 16.0559L6.43577 16.0294Z" fill="#8593A4"/>
<path d="M10.6471 0.363876L6.85838 4.1526C6.38431 4.62668 6.38431 5.3953 6.85838 5.86937L10.6471 9.6581C11.1212 10.1322 11.8898 10.1322 12.3639 9.6581L16.1526 5.86937C16.6267 5.3953 16.6267 4.62667 16.1526 4.1526L12.3639 0.363876C11.8898 -0.110197 11.1212 -0.110197 10.6471 0.363876Z" fill="#8593A4"/>
</svg>
